<?xml version="1.0" encoding="UTF-8" standalone="no"?>
<!-- Created with Inkscape (http://www.inkscape.org/) -->

<svg
   version="1.1"
   id="svg1"
   width="2560"
   height="2560"
   viewBox="0 0 2560 2560"
   sodipodi:docname="icon_DHT.png"
   xmlns:inkscape="http://www.inkscape.org/namespaces/inkscape"
   xmlns:sodipodi="http://sodipodi.sourceforge.net/DTD/sodipodi-0.dtd"
   xmlns="http://www.w3.org/2000/svg"
   xmlns:svg="http://www.w3.org/2000/svg">
  <defs
     id="defs1" />
  <sodipodi:namedview
     id="namedview1"
     pagecolor="#ffffff"
     bordercolor="#000000"
     borderopacity="0.25"
     inkscape:showpageshadow="2"
     inkscape:pageopacity="0.0"
     inkscape:pagecheckerboard="0"
     inkscape:deskcolor="#d1d1d1"
     inkscape:zoom="0.23643883"
     inkscape:cx="869.14658"
     inkscape:cy="1471.8395"
     inkscape:window-width="1920"
     inkscape:window-height="1058"
     inkscape:window-x="-6"
     inkscape:window-y="-6"
     inkscape:window-maximized="1"
     inkscape:current-layer="g1">
    <inkscape:page
       x="0"
       y="0"
       width="2560"
       height="2560"
       id="page2"
       margin="0"
       bleed="0" />
  </sodipodi:namedview>
  <g
     inkscape:groupmode="layer"
     inkscape:label="Image"
     id="g1">
    <g
       id="g2"
       transform="translate(2.6131051,32.445436)">
      <path
         style="fill:#4cb3fd"
         d="m 1178.6526,2085.6667 c -0.01,-12.2834 0,-131.6834 0.014,-265.3334 0.015,-133.65 -0.3577,-243 -0.8292,-243 -0.4716,0 -4.5278,4.0077 -9.014,8.9059 -44.5891,48.6846 -107.7717,76.8544 -198.15663,88.3476 -44.51323,5.6602 -132.58046,10.7171 -187,10.7376 -22.15386,0.01 -23.66667,-0.149 -23.66667,-2.4614 0,-2.1959 1.59165,-2.5699 14.33333,-3.3677 52.79746,-3.306 102.69134,-12.1841 139.69496,-24.8572 40.6,-13.9048 73.36742,-33.8291 100.68351,-61.2208 15.2108,-15.2529 25.0738,-27.7675 37.6344,-47.7522 66.4701,-105.7578 93.3754,-293.2173 66.8351,-465.6651 -7.4893,-48.6628 -20.7135,-99.9 -28.9054,-111.99469 -16.1233,-23.80466 -41.4903,-47.97913 -65.6092,-62.5247 -48.55565,-29.2828 -120.54012,-44.12257 -214.12595,-44.14255 -12.16925,-0.003 -28.51925,-0.39591 -36.33333,-0.87402 L 760,859.59476 v -59.13072 -59.13071 l 9.66667,0.0203 c 37.56185,0.0788 119.87595,3.80317 163.66666,7.40514 138.39017,11.38318 214.61617,49.90134 267.29967,135.07057 69.5316,112.40603 94.6873,320.44096 59.8362,494.83736 -5.6968,28.5071 -17.1769,70.9198 -24.0311,88.7815 -0.6146,1.6016 6.0168,1.8851 44.0859,1.8851 h 44.8093 V 1788.6667 2108 H 1252 1178.6667 Z M 1560,2012 v -96 h -50.6039 c -35.5623,0 -51.6134,-0.4599 -54,-1.5474 L 1452,1912.9053 v -29.786 -29.786 h 127.3333 127.3334 V 1980.6667 2108 H 1633.3333 1560 Z m 433.3333,-129.3333 V 1657.3333 H 1916.6667 1840 v -28 -28 h -3.3333 -3.3334 v -66 -66 l 63.6667,-3e-4 63.6667,-3e-4 -0.3579,66.0003 -0.3579,66.0003 H 2049.9755 2140 V 1854.6667 2108 h -73.3333 -73.3334 z M 64.888889,2071.1111 C 64.4,2070.6222 64,1684.5222 64,1213.1111 V 356 h 73.33333 73.33334 v 858 858 h -72.44445 c -39.844442,0 -72.844442,-0.4 -73.333331,-0.8889 z M 1560,1596.6667 v -127.3334 h 73.3333 73.3334 V 1596.6667 1724 H 1633.3333 1560 Z"
         id="path5" />
      <path
         style="fill:#e02588"
         d="m 1876.6514,1882.6667 c 0,-124.3 0.1568,-175.15 0.3485,-113 0.1917,62.15 0.1917,163.85 0,226 -0.1917,62.15 -0.3485,11.3 -0.3485,-113 z m -381.3668,158.6666 c 0,-36.3 0.1714,-51.15 0.381,-33 0.2095,18.15 0.2095,47.85 0,66 -0.2096,18.15 -0.381,3.3 -0.381,-33 z m -1283.68865,29.8182 c -0.51111,-0.5111 -0.92928,-386.6293 -0.92928,-858.0404 V 356 H 634 c 281.33333,0 423.3333,0.44724 423.3333,1.33333 0,0.76522 4.1189,1.33826 9.6667,1.3449 12.4697,0.0149 61.3105,3.41486 87,6.05632 186.0164,19.12666 313.1102,73.68949 407.8258,175.08429 183.3204,196.24784 266.3056,569.25146 201.9765,907.84786 l -4.1164,21.6666 H 1659.843 1560 V 1596.6667 1724 h -32.6667 -32.6666 v -127.3333 -127.3334 h -129.476 c -111.0354,0 -129.373,-0.2685 -128.7526,-1.8851 3.2383,-8.4389 12.5178,-39.4537 16.1909,-54.1149 C 1289.8698,1264.6874 1282.194,1081.1449 1233.3359,952 1187.2447,830.1687 1114.3631,773.18912 980,753.93955 930.1783,746.80182 831.93357,741.48567 747.66667,741.36768 l -30.33334,-0.0425 v 472.00412 472.004 l 45,-0.01 c 96.24992,-0.019 193.49837,-6.4581 242.99997,-16.0895 71.88,-13.9855 124.9683,-40.9358 163.49,-82.9957 4.4862,-4.8982 8.5362,-8.9059 9,-8.9059 0.4639,0 0.8434,108.6 0.8434,241.3334 0,143.0368 -0.4913,241.3333 -1.2062,241.3333 -0.6634,0 -9.2134,0.887 -19,1.9711 -21.6374,2.3969 -67.6701,5.941 -80.4605,6.1948 -7.6694,0.1521 -8.5013,0.3627 -4.6667,1.1811 5.8863,1.2563 42.1361,1.0955 -446.73735,1.9825 -227.73889,0.4132 -414.48889,0.3331 -415,-0.178 z m 892.73735,-2.7373 c 1.2834,-0.3353 3.3834,-0.3353 4.6667,0 1.2833,0.3354 0.2333,0.6098 -2.3333,0.6098 -2.5667,0 -3.6167,-0.2744 -2.3334,-0.6098 z M 1131,2067.0809 c 1.2833,-0.3354 3.3833,-0.3354 4.6667,0 1.2833,0.3354 0.2333,0.6098 -2.3334,0.6098 -2.5666,0 -3.6166,-0.2744 -2.3333,-0.6098 z m 20.6667,-1.2973 c 0.9166,-0.3699 2.4166,-0.3699 3.3333,0 0.9167,0.3699 0.1667,0.6725 -1.6667,0.6725 -1.8333,0 -2.5833,-0.3026 -1.6666,-0.6725 z M 1169,2064.4503 c 0.9167,-0.3699 2.4167,-0.3699 3.3333,0 0.9167,0.3699 0.1667,0.6725 -1.6666,0.6725 -1.8334,0 -2.5834,-0.3026 -1.6667,-0.6725 z m 325.6667,-133.117 V 1916 h 18.9161 18.9161 l -3.9161,4.1474 c -3.9083,4.1391 -31.961,26.5193 -33.2409,26.5193 -0.3714,0 -0.6752,-6.9 -0.6752,-15.3334 z m 64.4131,-8 c 0.01,-4.4 0.2564,-6.0392 0.5532,-3.6428 0.2967,2.3965 0.2906,5.9965 -0.014,8 -0.3043,2.0036 -0.5471,0.043 -0.5396,-4.3572 z m 279.5869,-293.2355 c 0,-24.8175 -0.2072,-27.2897 -2.3334,-27.8454 -1.7558,-0.4588 -1.5909,-0.648 0.6667,-0.7644 l 3,-0.1547 v 28 c 0,15.4 -0.3,28 -0.6667,28 -0.3666,0 -0.6666,-12.256 -0.6666,-27.2355 z m -19.8948,-262.8756 c 0.064,-1.5532 0.38,-1.8692 0.8056,-0.8055 0.3851,0.9625 0.3378,2.1125 -0.1053,2.5555 -0.443,0.4431 -0.7582,-0.3444 -0.7003,-1.75 z m 1.3334,-12 c 0.064,-1.5532 0.3799,-1.8692 0.8055,-0.8055 0.3852,0.9625 0.3378,2.1125 -0.1052,2.5555 -0.4431,0.4431 -0.7582,-0.3444 -0.7003,-1.75 z m 1.3333,-13.3333 c 0.064,-1.5533 0.3799,-1.8692 0.8056,-0.8056 0.3851,0.9625 0.3377,2.1125 -0.1053,2.5556 -0.4431,0.443 -0.7582,-0.3445 -0.7003,-1.75 z m 1.3333,-12 c 0.064,-1.5533 0.38,-1.8692 0.8056,-0.8056 0.3851,0.9625 0.3378,2.1125 -0.1053,2.5556 -0.443,0.443 -0.7582,-0.3445 -0.7003,-1.75 z m 1.4386,-15.2222 c 0,-1.8334 0.3027,-2.5834 0.6725,-1.6667 0.3699,0.9167 0.3699,2.4167 0,3.3333 -0.3698,0.9167 -0.6725,0.1667 -0.6725,-1.6666 z m 1.3334,-21.3334 c 0,-1.8333 0.3026,-2.5833 0.6725,-1.6666 0.3699,0.9166 0.3699,2.4166 0,3.3333 -0.3699,0.9167 -0.6725,0.1667 -0.6725,-1.6667 z m 1.3827,-20.6666 c 0.027,-2.2 0.326,-2.9386 0.6641,-1.6413 0.338,1.2973 0.3158,3.0973 -0.05,4 -0.3652,0.9027 -0.6418,-0.1587 -0.6146,-2.3587 z m 1.5824,-60 c 0,-8.8 0.2184,-12.2265 0.4796,-7.6144 0.2611,4.612 0.2589,11.812 0,16 -0.2638,4.1879 -0.4774,0.4144 -0.4748,-8.3856 z m -1.6318,-58 c 0,-1.8334 0.3026,-2.5834 0.6725,-1.6667 0.3699,0.9167 0.3699,2.4167 0,3.3333 -0.3699,0.9167 -0.6725,0.1667 -0.6725,-1.6666 z m -1.3333,-21.3334 c 0,-1.8333 0.3026,-2.5833 0.6725,-1.6666 0.3699,0.9166 0.3699,2.4166 0,3.3333 -0.3699,0.9167 -0.6725,0.1667 -0.6725,-1.6667 z m -1.284,-20.6666 c 0.027,-2.2 0.326,-2.9386 0.6641,-1.6413 0.338,1.2973 0.3158,3.0973 -0.049,4 -0.3652,0.9027 -0.6418,-0.1587 -0.6147,-2.3587 z m -1.488,-14.7778 c 0.064,-1.5533 0.38,-1.8692 0.8056,-0.8056 0.3851,0.9625 0.3378,2.1125 -0.1053,2.5556 -0.443,0.443 -0.7582,-0.3445 -0.7003,-1.75 z m -1.3333,-13.3333 c 0.064,-1.5533 0.3799,-1.8692 0.8056,-0.8056 0.3851,0.9625 0.3377,2.1125 -0.1053,2.5556 -0.4431,0.443 -0.7582,-0.3445 -0.7003,-1.75 z m -1.3333,-12 c 0.064,-1.5533 0.3799,-1.8692 0.8055,-0.8056 0.3852,0.9625 0.3378,2.1125 -0.1052,2.5556 -0.4431,0.443 -0.7582,-0.3445 -0.7003,-1.75 z m -1.3334,-13.3334 c 0.064,-1.5532 0.38,-1.8692 0.8056,-0.8055 0.3851,0.9625 0.3378,2.1125 -0.1053,2.5555 -0.443,0.4431 -0.7582,-0.3444 -0.7003,-1.75 z m -6.6666,-46.6666 c 0.064,-1.5533 0.3799,-1.8692 0.8055,-0.8056 0.3852,0.9625 0.3378,2.1125 -0.1052,2.5556 -0.4431,0.443 -0.7582,-0.3445 -0.7003,-1.75 z M 1616.5828,553 l -3.9161,-4.33333 4.3333,3.91612 c 4.0393,3.65037 4.9462,4.75054 3.9161,4.75054 -0.2294,0 -2.1794,-1.95 -4.3333,-4.33333 z m -16.6837,-18 -3.2324,-3.66667 3.6666,3.23242 c 2.0167,1.77783 3.6667,3.42783 3.6667,3.66667 0,1.0457 -1.0797,0.19463 -4.1009,-3.23242 z m -16,-16 -3.2324,-3.66667 3.6666,3.23242 c 2.0167,1.77783 3.6667,3.42783 3.6667,3.66667 0,1.0457 -1.0797,0.19463 -4.1009,-3.23242 z m -16,-14.66667 -3.2324,-3.66666 3.6666,3.23242 c 2.0167,1.77783 3.6667,3.42783 3.6667,3.66666 0,1.0457 -1.0797,0.19464 -4.1009,-3.23242 z M 1218.4167,367.08918 c 0.9625,-0.38516 2.1125,-0.33779 2.5555,0.10526 0.4431,0.44306 -0.3444,0.75819 -1.75,0.7003 -1.5532,-0.064 -1.8692,-0.37992 -0.8055,-0.80556 z m -13.3334,-1.33333 c 0.9625,-0.38516 2.1125,-0.33779 2.5556,0.10526 0.443,0.44306 -0.3445,0.75819 -1.75,0.70029 -1.5533,-0.064 -1.8692,-0.37992 -0.8056,-0.80555 z m -12,-1.33334 c 0.9625,-0.38516 2.1125,-0.33779 2.5556,0.10527 0.443,0.44305 -0.3445,0.75818 -1.75,0.70029 -1.5533,-0.064 -1.8692,-0.37992 -0.8056,-0.80556 z m -13.3333,-1.33333 c 0.9625,-0.38516 2.1125,-0.33779 2.5556,0.10526 0.443,0.44306 -0.3445,0.75819 -1.75,0.7003 -1.5533,-0.064 -1.8692,-0.37992 -0.8056,-0.80556 z M 1161,361.78363 c 0.9167,-0.36989 2.4167,-0.36989 3.3333,0 0.9167,0.36988 0.1667,0.67251 -1.6666,0.67251 -1.8334,0 -2.5834,-0.30263 -1.6667,-0.67251 z m -17.3333,-1.33334 c 0.9166,-0.36988 2.4166,-0.36988 3.3333,0 0.9167,0.36989 0.1667,0.67252 -1.6667,0.67252 -1.8333,0 -2.5833,-0.30263 -1.6666,-0.67252 z m -23.9845,-1.3933 c 1.6586,-0.31893 4.0586,-0.30682 5.3333,0.0269 1.2748,0.33373 -0.082,0.59466 -3.0155,0.57987 -2.9333,-0.0148 -3.9763,-0.28785 -2.3178,-0.60677 z m -29.3489,-1.3313 c 1.65,-0.3178 4.35,-0.3178 6,0 1.65,0.3178 0.3,0.57782 -3,0.57782 -3.3,0 -4.65,-0.26002 -3,-0.57782 z"
         id="path4" />
      <path
         style="fill:#bc3839"
         d="m 1451.6838,2010.6291 c 0.3441,-95.5745 0.3978,-97.3459 2.9124,-96.0002 1.409,0.7541 11.0013,1.3711 21.3161,1.3711 h 18.7544 v 15.3333 c 0,8.4334 0.3038,15.3334 0.6752,15.3334 1.2799,0 29.3326,-22.3802 33.2409,-26.5193 3.8649,-4.0932 4.0873,-4.1474 17,-4.1474 h 13.0839 l -0.04,7.6667 -0.04,7.6666 -15.6263,11.8199 c -8.5944,6.5009 -22.9763,16.5675 -31.9596,22.3703 l -16.3333,10.5505 v 65.963 65.963 l -21.6667,2e-4 -21.6667,1e-4 z m 381.6495,-155.8376 c 0,-252.5521 0.01,-253.2067 2.6667,-252.5112 2.5566,0.6686 2.6667,1.8187 2.6667,27.8752 v 27.1778 H 1857.3333 1876 V 1882.6667 2108 h -21.3333 -21.3334 z M 2288,1854.6667 v -253.3334 h 22 22 V 1854.6667 2108 h -22 -22 z m -1241.6314,215.022 c 3.136,-0.2817 7.936,-0.2777 10.6666,0.01 2.7307,0.2865 0.1648,0.5169 -5.7019,0.5121 -5.8666,0 -8.1008,-0.2393 -4.9647,-0.5209 z m 28.2981,-1.1117 c 3.3,-0.28 16.2,-1.1516 28.6666,-1.9369 21.8183,-1.3744 56.5432,-4.4995 68.3334,-6.1497 4.5179,-0.6324 5.6666,-0.3845 5.6666,1.2229 0,1.517 -2.2276,2.2241 -9,2.8567 -20.7587,1.9391 -47.5651,3.388 -72.7818,3.9339 -14.7867,0.3202 -24.1848,0.353 -20.8848,0.073 z m 399,-344.2413 -21.6667,-0.4018 v -126.6207 -126.6207 l -63.6667,-0.3595 c -60.4318,-0.3412 -59.3479,-0.3757 21.3334,-0.6796 l 85,-0.3201 v 127.3101 127.31 l 33,0.381 33,0.381 -32.6667,0.011 c -17.9667,0.01 -42.4167,-0.1698 -54.3333,-0.3908 z M 717.33333,1213.2995 V 741.26562 l 21,0.36719 21,0.36719 0.3352,471.6667 0.3352,471.6666 h -21.3352 -21.3352 z M 2468,1535.3003 v -66.033 l 21.6667,0.3663 21.6666,0.3664 0.3459,65.6667 0.3459,65.6666 H 2490.0126 2468 Z m -734.4852,-65.5891 26.1814,-0.4321 4.1113,-21.6396 c 25.5627,-134.5499 28.4135,-281.4925 8.1283,-418.9728 C 1736.305,787.18344 1636.8155,587.84686 1500,483.81787 1404.3299,411.07415 1282.2707,372.99233 1105.3333,360.68394 c -15.7666,-1.09678 -33.1666,-2.10022 -38.6666,-2.22985 -6.3562,-0.14981 -8.0567,-0.44401 -4.6667,-0.80739 6.8803,-0.73751 65.8539,1.91421 99.2784,4.464 247.3196,18.86684 393.8643,92.45934 502.9145,252.55597 82.4362,121.02452 138.3713,286.74145 157.0658,465.33333 9.1392,87.3078 9.1501,181.3487 0.031,267.3333 -3.4066,32.1211 -9.5497,74.1347 -14.6833,100.4214 -2.1935,11.2317 -3.7365,20.8317 -3.4289,21.3333 0.3076,0.5016 -21.1315,0.9442 -47.6424,0.9836 -26.5109,0.039 -36.42,-0.1228 -22.0202,-0.3604 z"
         id="path3" />
      <path
         style="display:inline;fill:#ffffff"
         d="M 1325.3333,1789.3464 V 1470.6667 H 1388.6667 1452 v 126.4636 126.4637 l 28.7304,0.7551 c 15.8017,0.4152 73.1017,0.4128 127.3333,-0.01 l 98.603,-0.7604 v -126.2472 -126.2472 l 37,-0.7238 c 20.35,-0.3981 48.7,-0.6431 63,-0.5444 l 26,0.1793 0.336,319 0.3361,319 h -63.3361 -63.336 v -127.3333 -127.3334 h -127.3266 -127.3266 l -0.3401,127 -0.3401,127 -63,0.3464 -63,0.3464 z m 815.5556,317.7647 C 2140.4,2106.6222 2140,1992.6222 2140,1853.7778 v -252.4445 h -90.0126 -90.0125 l 0.3459,-65.6666 0.3459,-65.6667 253.6666,-0.3368 253.6667,-0.3367 v 66.0034 66.0034 h -90 -90 V 1854.6667 2108 h -73.1111 c -40.2111,0 -73.5111,-0.4 -74,-0.8889 z"
         id="path2" />
    </g>
  </g>
</svg>
