<?xml version="1.0" encoding="UTF-8" standalone="no"?>
<!-- Created with Inkscape (http://www.inkscape.org/) -->

<svg
   version="1.1"
   id="svg1"
   width="2560"
   height="2560"
   viewBox="0 0 2560 2560"
   xmlns="http://www.w3.org/2000/svg"
   xmlns:svg="http://www.w3.org/2000/svg">
  <defs
     id="defs1">
    <filter
       style="color-interpolation-filters:sRGB"
       id="filter2"
       x="0"
       y="0"
       width="1"
       height="1">
      <feColorMatrix
         type="hueRotate"
         values="180"
         result="color1"
         id="feColorMatrix1" />
      <feColorMatrix
         values="-1 0 0 0 1 0 -1 0 0 1 0 0 -1 0 1 -0.21 -0.72 -0.07 1 0 "
         result="color2"
         id="feColorMatrix2" />
    </filter>
  </defs>
  <g
     id="g1">
    <path
       style="fill:#000000;filter:url(#filter2)"
       d="m 1228.6667,2443.1341 c -2.2,-0.2564 -9.7,-1.1094 -16.6667,-1.8954 -31.6619,-3.5722 -40.4277,-9.0095 -42.1196,-26.1257 l -0.769,-7.7797 8.837,-89.3333 c 4.8603,-49.1333 9.452,-95.6333 10.2037,-103.3333 1.8367,-18.8136 4.4988,-31.2477 7.8513,-36.6723 l 2.7759,-4.4914 4.9437,-1.7515 4.9437,-1.7515 14,0.2194 c 35.5315,0.5568 50.5277,6.2708 54.9954,20.9547 l 1.6712,5.4926 V 2310 2423.3333 l -1.8135,6.2389 c -2.0505,7.0543 -5.4538,10.6998 -12.0521,12.9098 l -4.5323,1.518 -14.1344,-0.1998 c -7.7739,-0.1099 -15.9343,-0.4096 -18.1343,-0.6661 z m -222,-33.0097 c -39.80246,-8.8979 -117.43268,-33.4619 -139.33337,-44.0884 l -12,-5.8225 -5.33333,-5.5051 -5.33333,-5.5052 0.13756,-8.9349 0.13756,-8.935 4.05156,-10 c 16.28192,-40.1867 73.31096,-176.9129 76.53433,-183.4897 12.26178,-25.0185 26.5075,-26.1203 90.32672,-6.9859 51.6063,15.4727 70.2636,23.5937 78.2448,34.0575 l 3.7002,4.8513 0.5378,10.1167 0.5379,10.1168 -20.2163,101.3333 -20.2163,101.3334 -3.5546,7.2743 c -1.955,4.001 -5.2018,8.466 -7.2151,9.9225 l -3.6605,2.648 -11.6728,0.3713 -11.6728,0.3713 z M 707.33333,2287.4157 c -36.55916,-11.8849 -85.60255,-43.9277 -157.8837,-103.1544 -55.9074,-45.8101 -73.39813,-62.8886 -78.12378,-76.2825 l -2.03034,-5.7546 0.87767,-4.7788 c 1.51961,-8.274 6.54308,-13.7143 83.38672,-90.305 l 75.10677,-74.8596 6,-3.0056 6,-3.0056 6.59708,0.2323 6.59708,0.2324 9.40292,4.556 c 10.29602,4.9887 27.25027,17.5969 69.62833,51.7798 27.97365,22.5641 46.78528,36.0768 79.25419,56.9299 28.39039,18.2336 35.88158,26.2361 35.82208,38.2671 l -0.0316,6.3996 -3.0356,7.3333 c -5.01251,12.1091 -96.79498,182.6907 -101.34966,188.3626 -2.31996,2.889 -6.44421,6.3893 -9.165,7.7784 l -4.94688,2.5257 -6.38645,-0.1084 c -3.51255,-0.06 -10.58645,-1.4738 -15.71979,-3.1426 z M 378,2000.1654 C 326.48823,1976.5728 188.64529,1728.2749 180.04321,1643.5838 l -1.05798,-10.4162 1.50739,-5.6936 c 4.00291,-15.1195 2.49143,-14.4846 117.54532,-49.3768 136.68161,-41.4511 123.58725,-43.5617 150.06096,24.1866 23.04974,58.9861 64.4093,136.208 102.68195,191.7162 8.59571,12.4667 18.07801,27.1667 21.07177,32.6667 l 5.4432,10 0.0188,6.3864 0.0188,6.3865 -2.55368,4.9469 c -3.64185,7.0548 -5.60184,8.7628 -80.11298,69.8159 -87.89573,72.0202 -86.34779,70.7794 -93.45048,74.9083 l -6.11714,3.556 -5.88286,-0.029 c -3.23557,-0.016 -8.28286,-1.1285 -11.21619,-2.472 z m 590,-59.3641 -10,-1.5464 -6.18864,-4.6275 -6.18864,-4.6274 -4.08299,-8.2334 -4.08298,-8.2335 -2.27509,-11.7665 -2.27509,-11.7666 -0.0849,-31.3333 -0.0849,-31.3334 2.95169,-16 c 9.27811,-50.293 27.1988,-96.0299 103.96314,-265.3333 17.9552,-39.6 38.534,-86.4512 45.7307,-104.1137 l 13.085,-32.1137 9.3375,-29.8863 9.3374,-29.8863 4.0604,-27.3333 4.0604,-27.3334 -2.4949,-24.6666 -2.4949,-24.6667 -7.3769,-21.6768 -7.377,-21.6768 -10.3361,-19.6565 c -5.6849,-10.8111 -22.1389,-38.2566 -36.5645,-60.9899 -32.9558,-51.9351 -42.2605,-68.1847 -50.4556,-88.1149 l -6.5318,-15.8851 -0.9364,-11.6795 -0.93645,-11.6796 6.68755,-7.71953 6.6876,-7.71954 12.4332,-3.77093 12.4332,-3.77093 18.6667,-1.77508 18.6666,-1.77509 103.2552,-0.0549 103.2552,-0.0549 15.4115,1.45385 15.4115,1.45385 12.6666,4.09972 12.6667,4.09973 9.7305,7.32266 9.7304,7.32266 7.2662,12.17613 7.2661,12.1762 5.3724,15.9476 c 6.643,19.7196 11.4911,40.4903 18.5052,79.2809 18.2119,100.7198 113.2996,649.1265 114.0213,657.6041 l 0.8744,10.2707 -1.5594,8.955 -1.5594,8.9549 -4.3564,7.2318 -4.3563,7.2317 -8.7881,5.8955 c -21.1088,14.1607 -25.9458,15.4818 -244.1469,66.6781 -214.7702,50.3913 -219.2348,51.3688 -249.14243,54.5477 -10.16166,1.0801 -18.56166,1.8921 -18.66667,1.8044 -0.10501,-0.088 -4.69092,-0.8554 -10.19092,-1.7059 z m 624.7606,-147.2361 -6.5727,-2.3992 -5.6468,-6.4172 -5.6469,-6.4172 -4.2698,-11.313 c -8.2988,-21.9881 -5.9176,-9.1278 -77.2151,-417.0186 -59.538,-340.6146 -56.3624,-323.6239 -66.91,-358 l -5.5229,-18 -7.6916,-15.38694 -7.6916,-15.38694 -9.7966,-8.72787 -9.7966,-8.72787 -11.3333,-4.35582 c -6.2334,-2.3957 -14.9334,-4.9475 -19.3334,-5.67065 l -8,-1.31484 -159.3333,-1.1024 -159.3333,-1.10241 -13.3334,-1.29207 C 1008,910.22155 995.4,908.03435 987.33333,906.07176 L 972.66667,902.5034 962,896.14901 l -10.66667,-6.35439 -8.26851,-10.56398 -8.2685,-10.56397 -6.14338,-15.20305 -6.14337,-15.20305 -3.79633,-16.79695 c -4.59001,-20.30864 -7.68142,-45.29263 -9.25503,-74.79695 l -1.17337,-22 L 909.32817,704 910.3715,683.33333 913.17227,668.66667 915.97303,654 l 5.68015,-13.66669 5.68015,-13.6667 10,-9.839 10,-9.839 13.33334,-6.01611 13.33333,-6.0161 18,-4.03641 c 34.3668,-7.70657 137.0429,-18.64366 260.6667,-27.76628 L 1282,560.9891 l 158.6667,-0.6078 158.6666,-0.6078 32.7074,1.43498 c 65.2751,2.86385 124.3098,10.93692 192.626,26.34181 l 38.6666,8.7191 40.6667,11.95881 40.6667,11.9588 37.3333,14.47458 37.3333,14.47458 30.6667,16.78682 30.6667,16.78682 17.6875,18.31177 17.6876,18.31176 9.8795,19.45109 9.8795,19.45109 3.7662,19.88224 3.7663,19.88225 v 404 404 l -3.7186,15.4516 -3.7187,15.4516 -9.4524,11.2151 -9.4525,11.215 -17.871,9.7584 -17.8711,9.7584 -28.9578,9.9993 c -59.1488,20.4243 -239.7231,66.3607 -406.2912,103.3566 l -12,2.6653 -17.3333,0.5465 -17.3334,0.5465 z M 157.33333,1499.1221 c -1.1,-0.4636 -4.19932,-2.566 -6.88738,-4.672 l -4.88739,-3.8291 -4.74546,-12.3105 -4.74546,-12.3105 -3.30119,-17.3333 c -4.39734,-23.0889 -8.27782,-56.2293 -10.76334,-91.922 l -2.03724,-29.2553 0.0138,-47.4114 0.0138,-47.4113 L 122.59692,1198 C 158.05435,725.87881 464.05847,331.72492 914,178.61962 c 94.5779,-32.18279 155.3112,-45.47228 256.6667,-56.16302 l 27.3333,-2.88306 31.3333,-0.1201 31.3334,-0.12011 5.5543,2.96982 c 7.3018,3.90407 10.5219,8.68055 12.3984,18.39046 l 1.5408,7.97306 -0.4134,106 -0.4135,106 -2.8266,6 c -7.7283,16.40433 -19.0195,19.85598 -89.5233,27.36677 -377.76076,40.24295 -692.74983,322.01374 -775.03386,693.29986 -18.74136,84.5657 -22.58303,140.6579 -19.45079,284 l 1.16541,53.3334 -2.68433,10.2882 -2.68433,10.2883 -4.12044,5.2024 -4.12044,5.2025 -6.73754,2.8984 -6.73754,2.8984 -93.6231,18.6774 -93.62311,18.6774 -10,0.5827 c -5.5,0.3204 -10.9,0.2034 -12,-0.2603 z"
       id="path1" />
  </g>
</svg>
