<?xml version="1.0" encoding="UTF-8" standalone="no"?>
<!-- Created with Inkscape (http://www.inkscape.org/) -->

<svg
   version="1.1"
   id="svg1"
   width="2560"
   height="2560"
   viewBox="0 0 2560 2560"
   sodipodi:docname="icon_sound2haptic.png"
   xmlns:inkscape="http://www.inkscape.org/namespaces/inkscape"
   xmlns:sodipodi="http://sodipodi.sourceforge.net/DTD/sodipodi-0.dtd"
   xmlns="http://www.w3.org/2000/svg"
   xmlns:svg="http://www.w3.org/2000/svg">
  <defs
     id="defs1" />
  <sodipodi:namedview
     id="namedview1"
     pagecolor="#ffffff"
     bordercolor="#000000"
     borderopacity="0.25"
     inkscape:showpageshadow="2"
     inkscape:pageopacity="0.0"
     inkscape:pagecheckerboard="true"
     inkscape:deskcolor="#d1d1d1"
     showgrid="false">
    <inkscape:page
       x="0"
       y="0"
       width="2560"
       height="2560"
       id="page2"
       margin="0"
       bleed="0" />
  </sodipodi:namedview>
  <g
     inkscape:groupmode="layer"
     inkscape:label="Image"
     id="g1">
    <path
       style="fill:#ffffff"
       d="M 1207.7898,2086.5537 C 1075.7535,2064.945 995.74532,2007.4493 852.63744,1831.3333 776.39925,1737.5107 741.06387,1700.5284 693.70552,1664.9941 643.16723,1627.0737 600.89111,1604.8199 487.33333,1556.3611 322.65233,1486.0864 299.38491,1451.8738 299.38491,1280 c 0,-171.7212 23.12324,-205.8035 187.28176,-276.0422 C 602.29987,954.48163 642.65353,933.24015 694,894.82105 741.36667,859.37976 776.9881,821.95296 855.94658,724.66667 995.55154,552.65664 1077.562,494.36954 1209.6634,473.27025 c 332.8744,-53.1668 483.2765,270.69354 448.6438,966.06305 -24.2543,486.9872 -167.9761,693.4603 -450.5174,647.2204 z m 128.8769,-280.9568 c 85.6043,-25.0031 133.6461,-136.7288 148.606,-345.5969 16.1828,-225.9426 1.72,-452.6894 -36.5119,-572.43049 -71.8026,-224.88343 -289.0356,-170.16931 -343.2291,86.44855 -25.3064,119.83134 -28.9716,435.49684 -6.6877,575.98194 29.3457,185.0047 125.5428,288.3913 237.8227,255.5969 z M 1192,1406.6089 c -40.4874,-6.2164 -55.304,-40.1545 -55.2744,-126.6089 0.027,-79.0212 12.4039,-113.3069 44.9331,-124.4707 12.049,-4.1351 220.1848,-4.526 233.6746,-0.4388 15.9222,4.8241 25.395,13.597 34.1113,31.5909 17.4608,36.0456 17.2576,150.7911 -0.3316,187.2981 -8.4065,17.448 -16.5428,25.1142 -32.4463,30.5719 -8.6332,2.9627 -206.9427,4.7788 -224.6667,2.0575 z m 604,461.4008 c -8.2819,-1.5528 -15.3813,-6.2966 -25.3417,-16.9331 -38.3027,-40.903 -33.3836,-54.8789 40.0084,-113.671 88.1333,-70.601 89.1543,-87.0148 10.006,-160.8447 -107.3934,-100.177 -108.5919,-114.496 -16.6727,-199.1992 95.9247,-88.3942 96.1465,-105.5901 2.4811,-192.3221 -93.3775,-86.4653 -92.8144,-102.4472 6.8522,-194.48312 87.2913,-80.60804 87.0748,-95.98602 -2.3617,-167.75537 -73.2402,-58.77252 -78.4395,-72.5526 -42.1829,-111.8015 33.0648,-35.79374 50.2914,-27.94472 144.0067,65.61421 114.3887,114.1979 116.0881,132.74745 20.2567,221.10126 -90.6772,83.60162 -90.5848,102.63002 0.9091,187.40052 93.3085,86.4516 93.1589,104.5389 -1.5829,191.3352 -89.6755,82.1548 -89.5761,102.4892 0.9099,186.1189 95.6694,88.4204 93.9932,106.4778 -20.4989,220.8313 -72.4483,72.3606 -94.9954,88.695 -116.7893,84.6087 z m 268.8964,-0.5722 c -9.1458,-2.4787 -15.9343,-7.7305 -28.5908,-22.1189 -32.2394,-36.6511 -26.2839,-50.4848 47.0277,-109.2373 87.9748,-70.5037 87.9123,-86.2369 -0.6666,-168.0257 -98.4199,-90.8752 -98.6337,-106.9505 -2.6009,-195.5133 90.6253,-83.5759 90.0035,-102.3843 -6.3091,-190.8428 -88.6477,-81.4186 -87.7527,-100.9081 8.7004,-189.45303 85.6511,-78.62861 87.1519,-99.37125 11.5429,-159.54428 -87.9236,-69.97358 -92.9241,-82.1571 -51.2461,-124.85825 30.3203,-31.06457 48.1227,-23.02761 131.7614,59.48407 123.6569,121.99075 126.2955,140.95224 31.745,228.12645 -94.0715,86.73254 -93.9127,104.31754 1.7397,192.60984 90.4148,83.4577 89.6752,102.1906 -7.5428,191.0326 -86.7092,79.2386 -86.3553,99.7443 3.1562,182.9031 97.3527,90.4435 95.2444,107.8554 -27.7721,229.3597 -67.8494,67.0153 -89.5292,81.8817 -110.9449,76.0778 z"
       id="path1" />
  </g>
</svg>
