<?xml version="1.0" encoding="UTF-8" standalone="no"?>
<!-- Created with Inkscape (http://www.inkscape.org/) -->

<svg
   version="1.1"
   id="svg1"
   width="666.66669"
   height="666.66669"
   viewBox="0 0 666.66669 666.66669"
   xmlns="http://www.w3.org/2000/svg"
   xmlns:svg="http://www.w3.org/2000/svg">
  <defs
     id="defs1">
    <filter
       style="color-interpolation-filters:sRGB"
       id="filter63"
       x="0"
       y="0"
       width="1"
       height="1">
      <feColorMatrix
         type="hueRotate"
         values="180"
         result="color1"
         id="feColorMatrix62" />
      <feColorMatrix
         values="-1 0 0 0 1 0 -1 0 0 1 0 0 -1 0 1 -0.21 -0.72 -0.07 1 0 "
         result="color2"
         id="feColorMatrix63" />
    </filter>
  </defs>
  <g
     id="g1">
    <path
       style="fill:#000000;filter:url(#filter63)"
       d="M 248.66667,617.54349 C 195.04387,599.33917 159.05999,577.72667 124,542.66668 79.086186,497.75287 50.613223,441.62737 40.377435,377.83108 l -2.326087,-14.49774 v -30 -30 l 2.326087,-14.49773 C 50.613223,225.03932 79.086186,168.91382 124,124 219.60191,28.398099 367.05077,9.7366503 484.31808,78.397366 c 7.1416,4.18145 12.76474,8.202637 12.49588,8.93597 -0.26887,0.733333 -6.44271,10.114825 -13.71965,20.847764 l -13.2308,19.51442 -8.59841,-5.29921 c -18.73489,-11.54634 -45.67356,-22.769702 -67.93175,-28.302178 -21.50113,-5.344298 -34.07212,-6.760796 -60.00001,-6.760796 -25.92789,0 -38.49887,1.416498 -60,6.760796 -87.35009,21.711648 -157.52756,91.889118 -179.239208,179.239208 -5.344298,21.50113 -6.760796,34.07211 -6.760796,60 0,25.92789 1.416498,38.49888 6.760796,60.00001 13.350298,53.71077 46.811898,104.0741 91.014968,136.98737 23.94808,17.83156 46.44123,29.22636 78.76824,39.90322 10.7008,3.53422 19.64084,6.51449 19.86674,6.62282 0.35018,0.16792 -6.41139,36.59708 -8.44269,45.48659 -0.37704,1.65 -1.42409,2.97867 -2.32678,2.95261 -0.9027,-0.0261 -11.84127,-3.51018 -24.30794,-7.74247 z m 159.03837,-108.87681 -0.37169,-16 -17,-0.37317 -17.00001,-0.37317 v 16.03984 16.03984 h -9.33333 -9.33333 v -40.66667 -40.66667 h 9.33333 9.33333 v 16.7065 16.70651 l 17.00001,-0.37317 17,-0.37317 0.37437,-16.33334 0.37437,-16.33333 h 8.62563 8.62563 v 41 41 h -8.62831 -8.6283 z m 50.29497,15.50024 c -12.37269,-3.28734 -20.62242,-11.39545 -23.23238,-22.83357 -0.753,-3.3 -1.38376,-17.85 -1.40169,-32.33334 l -0.0326,-26.33333 H 442 h 8.66667 v 26.04283 26.04282 l 1.89496,4.53529 c 1.10247,2.63858 3.70114,5.46929 6.21379,6.76863 l 4.31881,2.23335 7.84527,-0.56748 7.84527,-0.56747 3.60762,-3.60479 3.60761,-3.60478 0.40682,-28.6392 0.40681,-28.6392 h 8.70232 8.70231 l -0.44246,30.44178 -0.44246,30.44179 -4,6.41677 -4,6.41678 -6.76752,3.80546 -6.76752,3.80546 -9.89915,0.61749 C 466.45462,524.95183 460.2,524.75145 458,524.16692 Z m 53.9978,-40.50024 0.002,-41 15.66666,2.3e-4 c 8.61667,1.2e-4 20.40408,0.90675 26.19424,2.01472 l 10.52757,2.01449 6.1391,4.3903 c 3.3765,2.41465 8.03587,7.26983 10.35415,10.78927 l 4.21506,6.39898 1.39525,7.92094 1.39524,7.92095 -1.50214,7.60839 c -1.92255,9.7378 -8.31859,19.31704 -16.59149,24.84875 -8.97328,6.00004 -10.30237,6.27124 -35.46252,7.23628 l -22.33554,0.8567 z m 37.59519,22.81976 c 9.13735,-1.95961 15.04024,-6.56406 17.85123,-13.92454 l 2.25154,-5.89556 -0.85145,-6.21199 c -0.98694,-7.20048 -5.75401,-14.13908 -11.91323,-17.34001 l -4.26441,-2.2162 -11.33333,-0.11573 -11.33333,-0.11573 -0.36772,21.94882 c -0.20224,12.07185 -0.0711,22.72185 0.29149,23.66666 l 0.6592,1.71786 h 5.97622 c 3.28692,0 9.15212,-0.68111 13.03379,-1.51358 z M 276.00001,515.311 c -28.17276,-9.93927 -47.81024,-21.01004 -68.22182,-38.46054 -30.99082,-26.49504 -54.27354,-67.36469 -62.03987,-108.90258 l -2.35854,-12.61454 v -22 -22 l 2.35854,-12.61453 c 14.47132,-77.39923 75.58126,-138.50917 152.98049,-152.98049 l 12.61453,-2.35854 h 22 22 l 12.53271,2.34442 c 13.63455,2.55053 37.4673,9.97183 37.4673,11.66698 0,1.66253 -5.16398,13.27549 -5.90326,13.27549 -0.36558,0 -3.5369,-1.12767 -7.04738,-2.50595 -10.87931,-4.27139 -28.39224,-8.04493 -44.04937,-9.4914 l -15,-1.38576 -15,1.38663 c -41.91583,3.87479 -79.33396,21.35747 -108.81982,50.84333 -29.48586,29.48586 -46.96854,66.90399 -50.84333,108.81982 l -1.38663,15 1.41056,15 c 0.77581,8.25 2.29549,18.82377 3.37705,23.49725 11.83465,51.13792 46.56095,95.08607 93.85779,118.78249 5.53908,2.77516 17.31119,7.56487 26.16026,10.64379 l 16.08922,5.59804 -1.31216,7.23922 c -0.72169,3.98157 -1.96183,7.20718 -2.75588,7.16802 -0.79405,-0.0392 -8.94372,-2.71718 -18.11039,-5.95115 z m 46.66667,-160.5759 c -15.16298,-8.05929 -17.86365,-28.27845 -5.2629,-39.40176 1.66148,-1.46666 33.25731,-38.96666 70.21295,-83.33333 36.95565,-44.36667 69.19548,-82.05496 71.64408,-83.75177 2.44859,-1.6968 6.40604,-3.14065 8.79432,-3.20855 l 4.34233,-0.12347 1.80128,2.4634 c 2.21355,3.02722 2.28507,6.83463 0.23866,12.70497 -0.85944,2.46539 -27.59136,43.7414 -59.40428,91.72448 -31.81292,47.98308 -58.95135,89.40549 -60.30763,92.04979 -6.19313,12.07457 -20.60517,16.96398 -32.05881,10.87624 z m 257.95703,-32.79465 c -0.52196,-6.26609 -0.72582,-11.61512 -0.45302,-11.88674 0.54345,-0.5411 41.17641,-4.72037 45.8938,-4.72037 h 2.92453 l 0.92915,11 c 0.51103,6.05 1.25356,12.35 1.65005,14 l 0.72089,3 h -25.35819 -25.35818 z m -8.0966,-48.72988 -2.772,-10.78943 1.45579,-0.55562 c 6.18977,-2.3624 45.35493,-13.74414 45.79162,-13.30745 1.03086,1.03086 6.86975,25.34747 6.23809,25.97912 -0.69226,0.69227 -42.70775,9.288 -45.92439,9.39544 l -2.01712,0.0674 z M 556.5254,228.44924 c -2.50438,-5.49551 -4.22584,-10.52189 -3.82545,-11.16973 0.71437,-1.15587 38.57198,-21.5717 41.41773,-22.33574 1.3132,-0.35256 13.22555,23.4908 12.23239,24.48396 -0.23124,0.23125 -10.51187,4.60385 -22.84584,9.71689 l -22.4254,9.29645 z m -24.28531,-40.67263 c -3.16796,-4.42451 -6.04457,-8.78633 -6.39246,-9.69293 -0.58396,-1.52177 31.6284,-29.19882 35.88419,-30.83193 l 1.85089,-0.71025 7.54199,10.02044 c 4.14809,5.51124 7.54198,10.54598 7.54198,11.18832 0,0.94172 -19.03045,14.1581 -37.33333,25.92747 l -3.33333,2.14345 z m -33.49092,-37.1624 -8.58418,-7.84986 2.0552,-2.38218 c 1.13035,-1.31019 8.2245,-9.88217 15.76476,-19.04883 7.54026,-9.16667 13.82299,-16.66667 13.96163,-16.66667 0.13863,0 4.87447,4.2 10.5241,9.33333 l 10.27204,9.33334 -17.70468,17.56537 -17.70469,17.56537 z"
       id="path1" />
  </g>
</svg>
