<?xml version="1.0" encoding="UTF-8" standalone="no"?>
<!-- Created with Inkscape (http://www.inkscape.org/) -->

<svg
   version="1.1"
   id="svg1"
   width="2560"
   height="2560"
   viewBox="0 0 2560 2560"
   xmlns="http://www.w3.org/2000/svg"
   xmlns:svg="http://www.w3.org/2000/svg">
  <defs
     id="defs1">
    <filter
       style="color-interpolation-filters:sRGB"
       id="filter2"
       x="0"
       y="0"
       width="1"
       height="1">
      <feColorMatrix
         type="hueRotate"
         values="180"
         result="color1"
         id="feColorMatrix1" />
      <feColorMatrix
         values="-1 0 0 0 1 0 -1 0 0 1 0 0 -1 0 1 -0.21 -0.72 -0.07 1 0 "
         result="color2"
         id="feColorMatrix2" />
    </filter>
  </defs>
  <g
     id="g1">
    <path
       style="fill:#000000;filter:url(#filter2)"
       d="m 1118.1072,2405 c -0.9609,-21.8229 -7.4617,-249.818 -7.449,-261.2526 l 0.01,-7.586 -11.6667,-3.5037 c -39.5555,-11.8789 -108.5549,-36.2073 -144.33333,-50.8902 -35.00858,-14.367 -95.04228,-42.0462 -116.66667,-53.7905 -3.66667,-1.9914 -14.90687,-7.9045 -24.97823,-13.1402 l -18.31156,-9.5196 -96.3551,90.8657 c -52.99531,49.9761 -100.11315,94.5204 -104.70632,98.9872 l -8.35121,8.1216 -113.98285,-113.977 c -62.69057,-62.6873 -113.83253,-114.3804 -113.64879,-114.8735 0.18373,-0.493 44.38406,-47.5387 98.22295,-104.546 53.83889,-57.0072 97.8747,-104.3047 97.85737,-105.1057 -0.0173,-0.8009 -6.00396,-12.8562 -13.3036,-26.7895 -39.81365,-75.995 -69.37527,-144.7907 -94.24794,-219.3333 -8.44186,-25.3 -16.92547,-51.25 -18.85246,-57.6667 l -3.50363,-11.6667 h -7.82443 c -11.24084,0 -235.44477,-6.4142 -259.68087,-7.4292 L 136,1441.0526 v -161.0544 -161.0543 l 19,-0.8352 c 10.45,-0.4594 61.6,-2.0239 113.66667,-3.4767 52.06666,-1.4528 108.30905,-3.0334 124.98308,-3.5125 l 30.31642,-0.871 3.43698,-11.4576 c 1.89033,-6.3017 10.66593,-33.0576 19.50132,-59.4576 l 16.06435,-47.99997 17.74098,-42.66666 c 17.23116,-41.44055 37.24165,-83.79991 61.89257,-131.01776 L 554.6192,794.63115 456.3096,690.52291 c -54.07028,-57.25953 -98.45993,-104.50253 -98.64366,-104.98444 -0.18374,-0.4819 50.95748,-52.16511 113.64715,-114.85156 l 113.98122,-113.97538 7.68618,7.46786 c 4.2274,4.10732 51.35392,48.64667 104.7256,98.97634 l 97.03943,91.5085 18.2939,-9.51028 C 823.10107,539.9233 834.33333,534.0177 838,532.03041 860.19203,520.00257 919.79876,492.50682 954.66667,478.2137 990.38738,463.57101 1059.6374,439.16329 1099,427.34226 l 11.6667,-3.50363 v -8.25265 c 0,-12.08663 6.4538,-238.28108 7.4401,-260.58598 l 0.8401,-19 h 161.0561 161.0561 l 0.8401,19 c 0.9863,22.3049 7.4444,248.49935 7.4401,260.58598 v 8.25265 l 11.6667,3.50075 c 6.4167,1.92541 33.2667,10.7297 59.6667,19.56509 l 48,16.06435 42.6666,17.74127 c 41.3446,17.19154 87.6325,39.06691 132.3446,62.5453 l 21.6779,11.38309 104.1042,-98.31924 c 57.2574,-54.07558 104.5033,-98.46957 104.991,-98.6533 0.4877,-0.18374 52.1764,50.95822 114.8637,113.64879 l 113.977,113.98285 -8.1216,8.35121 c -4.4668,4.59317 -48.9699,51.66739 -98.8957,104.60938 l -90.7741,96.25817 11.3211,21.74183 c 10.7042,20.55709 38.493,76.60296 45.1571,91.07516 1.6884,3.66667 10.2641,24.06667 19.057,45.33334 l 15.9872,38.66666 16.0686,47.99997 c 8.8377,26.4 17.6439,53.25 19.5693,59.6667 l 3.5008,11.6667 h 8.2526 c 12.0866,0 238.2811,6.4538 260.586,7.4401 l 19,0.8401 v 161.1947 c 0,88.6571 -0.15,161.2047 -0.3333,161.217 -4.3543,0.2904 -272.3981,7.9512 -278.586,7.9621 l -8.9193,0.016 -3.5037,11.6667 c -11.8313,39.3971 -36.2249,108.6023 -50.8748,144.3333 -14.9717,36.516 -39.2465,89.0991 -54.4742,118 -3.0912,5.8667 -9.2983,17.709 -13.7936,26.3161 l -8.1733,15.6495 91.51,97.0172 c 50.3305,53.3595 94.8685,100.476 98.9733,104.7034 l 7.4634,7.6862 -113.9754,113.9812 c -62.6865,62.6897 -114.3654,113.8309 -114.8421,113.6472 -0.4766,-0.1838 -47.514,-44.3841 -104.5275,-98.223 -57.0135,-53.8389 -104.3245,-97.8747 -105.1355,-97.8574 -0.8111,0.017 -12.9073,6.0298 -26.8806,13.361 -74.9614,39.3291 -144.6702,69.2716 -219.2607,94.1805 -25.3,8.4488 -51.25,16.9375 -57.6667,18.8638 l -11.6667,3.5024 -0.013,8.9193 c -0.01,6.203 -7.6771,274.4404 -7.9638,278.586 -0.013,0.1833 -72.5607,0.3333 -161.2178,0.3333 H 1118.95 Z m 211.5582,-656.2675 43.3011,-4.6008 44.5167,-13.2308 44.5168,-13.2308 40.3839,-21.9871 40.3838,-21.9871 36.2828,-29.3012 36.2828,-29.3012 29.2134,-36.2136 29.2134,-36.2135 21.9335,-40.3332 21.9336,-40.3332 13.2829,-44.6667 13.283,-44.6666 4.8593,-46.3334 4.8594,-46.3333 -4.8594,-46.3333 -4.8593,-46.3334 -13.283,-44.6666 -13.2829,-44.6667 -21.9687,-40.3978 -21.9686,-40.3978 -29.4153,-36.34742 -29.4152,-36.34742 -35.9552,-29.05807 -35.9552,-29.05807 -40.4745,-22.0103 -40.4745,-22.01031 -44.6667,-13.28294 -44.6666,-13.28293 -46.3333,-4.85938 -46.3333,-4.85938 -47.0001,4.97984 -47,4.97985 -44,13.16011 -44,13.16012 -40.4246,21.99273 -40.4247,21.99272 -36.24201,29.33973 -36.24202,29.33972 -29.16976,36.08316 -29.16975,36.08314 -21.97041,40.4004 -21.97041,40.4003 -13.2897,44.6667 -13.2897,44.6666 -4.85939,46.3334 -4.85938,46.3333 4.85938,46.3333 4.85939,46.3334 13.30613,44.6666 13.30613,44.6667 21.69651,40 21.69651,40 29.67408,36.7176 29.67409,36.7176 36.41981,29.3643 36.4198,29.3644 40,21.7274 40,21.7275 44.6667,13.2827 44.6666,13.2827 40.6667,4.429 c 22.3667,2.436 44.6486,4.4945 49.5155,4.5746 4.8668,0.08 28.3343,-1.9248 52.1499,-4.4553 z"
       id="path1" />
  </g>
</svg>
