<?xml version="1.0" encoding="UTF-8" standalone="no"?>
<!-- Created with Inkscape (http://www.inkscape.org/) -->

<svg
   version="1.1"
   id="svg1"
   width="2560"
   height="2560"
   viewBox="0 0 2560 2560"
   xmlns="http://www.w3.org/2000/svg"
   xmlns:svg="http://www.w3.org/2000/svg">
  <defs
     id="defs1">
    <filter
       style="color-interpolation-filters:sRGB"
       id="filter5"
       x="0"
       y="0"
       width="1"
       height="1">
      <feColorMatrix
         type="luminanceToAlpha"
         result="colormatrix1"
         id="feColorMatrix1" />
      <feFlood
         flood-opacity="1"
         flood-color="rgb(81,81,245)"
         result="flood1"
         id="feFlood1" />
      <feComposite
         in2="colormatrix1"
         operator="out"
         result="composite1"
         id="feComposite1" />
      <feFlood
         flood-opacity="1"
         flood-color="rgb(255,255,0)"
         result="flood2"
         id="feFlood2" />
      <feComposite
         in2="colormatrix1"
         result="composite2"
         operator="in"
         id="feComposite2" />
      <feComposite
         in="composite2"
         in2="composite1"
         k2="1"
         k3="1"
         operator="arithmetic"
         result="composite3"
         id="feComposite3"
         k1="0"
         k4="0" />
      <feColorMatrix
         in="composite3"
         type="matrix"
         values="2 -1 0 0 0 0 2 -1 0 0 -1 0 2 0 0 0 0 0 1 0 "
         result="colormatrix2"
         id="feColorMatrix3" />
      <feComposite
         in="colormatrix2"
         in2="composite3"
         operator="arithmetic"
         k2="2"
         result="composite4"
         id="feComposite4"
         k1="0"
         k3="0"
         k4="0" />
      <feBlend
         in="composite4"
         in2="composite3"
         mode="normal"
         result="blend"
         id="feBlend4" />
      <feComposite
         in2="SourceGraphic"
         operator="in"
         id="feComposite5"
         result="fbSourceGraphic" />
      <feColorMatrix
         result="fbSourceGraphicAlpha"
         in="fbSourceGraphic"
         values="0 0 0 -1 0 0 0 0 -1 0 0 0 0 -1 0 0 0 0 1 0"
         id="feColorMatrix5" />
      <feColorMatrix
         id="feColorMatrix6"
         type="luminanceToAlpha"
         result="colormatrix1"
         in="fbSourceGraphic" />
      <feFlood
         id="feFlood6"
         flood-opacity="1"
         flood-color="rgb(255,255,255)"
         result="flood1" />
      <feComposite
         id="feComposite6"
         in2="colormatrix1"
         operator="out"
         result="composite1" />
      <feFlood
         id="feFlood7"
         flood-opacity="1"
         flood-color="rgb(255,255,0)"
         result="flood2" />
      <feComposite
         id="feComposite7"
         in2="colormatrix1"
         result="composite2"
         operator="in" />
      <feComposite
         id="feComposite8"
         in="composite2"
         in2="composite1"
         k2="1"
         k3="1"
         operator="arithmetic"
         result="composite3"
         k1="0"
         k4="0" />
      <feColorMatrix
         id="feColorMatrix8"
         in="composite3"
         type="matrix"
         values="2 -1 0 0 0 0 2 -1 0 0 -1 0 2 0 0 0 0 0 1 0 "
         result="colormatrix2" />
      <feComposite
         id="feComposite9"
         in="colormatrix2"
         in2="composite3"
         operator="arithmetic"
         k2="2"
         result="composite4"
         k1="0"
         k3="0"
         k4="0" />
      <feBlend
         id="feBlend9"
         in="composite4"
         in2="composite3"
         mode="normal"
         result="blend" />
      <feComposite
         id="feComposite10"
         in2="fbSourceGraphic"
         operator="in" />
    </filter>
  </defs>
  <g
     id="g1">
    <path
       style="fill:#000000;filter:url(#filter5)"
       d="m 358.02448,2017.1564 c -30.6122,-2.9393 -76.63153,-13.1854 -97.57897,-21.7255 -18.27907,-7.4523 -29.29927,-14.7042 -42.51403,-27.9765 -12.98697,-13.0435 -19.22516,-21.6993 -27.27895,-37.8509 C 169.57799,1887.3394 151.95228,1807.3 142.73345,1712 c -8.79669,-90.9361 -7.07808,-175.3249 6.01457,-295.3333 23.11374,-211.8626 62.20592,-398.5016 125.95135,-601.33337 39.67006,-126.22628 71.65503,-202.53203 102.55658,-244.66666 33.84833,-46.1526 90.29134,-78.36497 157.52089,-89.89814 28.38714,-4.86978 88.08546,-9.41574 107.22316,-8.16491 24.54194,1.60404 38.39138,5.52337 48.43346,13.70643 13.88263,11.31266 19.42628,25.47947 27.00965,69.02328 16.87131,96.8752 28.33102,155.63835 38.03735,195.04795 16.50462,67.01199 35.85735,116.09618 58.99113,149.61872 31.24594,45.27767 75.65976,67.66137 148.19508,74.68743 29.15178,2.82376 114.80203,3.87474 316.66663,3.88571 202.0156,0.011 291.2341,-1.08238 318.802,-3.90685 46.4031,-4.75422 79.398,-15.07759 106.6219,-33.35969 42.4377,-28.49887 72.9919,-85.69191 97.9511,-183.35039 9.852,-38.54837 24.9708,-115.60837 39.3612,-200.62288 7.2902,-43.06887 13.7879,-59.852 27.497,-71.02328 7.055,-5.74889 12.8295,-8.21495 26.1669,-11.17467 l 10.2666,-2.2783 24.6667,0.0309 c 50.4312,0.0633 102.1189,7.06735 137.3333,18.60974 57.51,18.85033 98.3872,50.44854 128.2904,99.16891 21.424,34.90565 45.5004,93.37413 75.6274,183.65848 68.4155,205.02681 113.6946,412.09239 138.0097,631.13149 16.3366,147.1659 17.0039,236.2901 2.6095,348.5434 -10.5108,81.9671 -28.2959,150.8109 -47.5155,183.926 -20.8454,35.916 -47.21,54.5103 -94.6551,66.7575 -60.252,15.5532 -120.4879,18.3253 -157.0281,7.2265 l -9.2531,-2.8105 -9.2501,-6.4961 c -18.4504,-12.9572 -29.9627,-29.9013 -46.8584,-68.9673 -29.0221,-67.1045 -47.9444,-105.6153 -107.2633,-218.3028 -43.289,-82.2359 -49.632,-92.9702 -65.7024,-111.1891 -21.8734,-24.7979 -51.8008,-36.9781 -102.2362,-41.6094 l -17.2251,-1.5817 -44.7749,0.7787 c -49.0241,0.8526 -67.9703,2.0536 -172.1081,10.91 -118.7508,10.0992 -149.0757,12.0995 -213.011,14.0506 l -45.6775,1.394 -44.8926,-1.3881 c -65.5221,-2.026 -97.2664,-4.1348 -221.7523,-14.731 -96.16061,-8.1852 -116.0468,-9.4264 -164.08608,-10.2416 l -44.75277,-0.7594 -17.91389,1.6357 c -59.71517,5.4525 -89.45899,20.8753 -115.83915,60.0647 -11.29307,16.7765 -15.27969,23.9815 -52.38043,94.6666 -64.49771,122.8824 -74.13229,142.3733 -101.66286,205.665 -16.54802,38.0432 -25.1114,53.7418 -35.88744,65.7898 -14.6458,16.3744 -29.92094,23.9542 -56.11078,27.843 -14.86143,2.2067 -46.56297,2.4565 -66.67542,0.5253 z m 1027.60212,-565.631 c 15.1617,-5.8193 21.0541,-24.4671 12.6043,-39.8892 l -2.7561,-5.0304 -7.4041,-3.6362 -7.404,-3.6363 H 1280 1179.3333 l -7.404,3.6363 -7.4041,3.6362 -2.7561,5.0304 c -5.7612,10.5149 -4.703,24.9295 2.4261,33.0491 3.8196,4.3502 11.7148,7.8516 20.4715,9.0787 2.2,0.3083 46.9,0.4742 99.3333,0.3687 l 95.3333,-0.1918 z m -550.95993,-60.1192 16.66666,-1.8678 L 866,1384.8777 c 51.73595,-16.4405 92.98876,-58.1474 109.18501,-110.387 l 4.80846,-15.5092 1.57462,-16.708 1.57463,-16.708 -1.4732,-16.6153 -1.47319,-16.6152 -4.90989,-15.8342 c -13.08873,-42.2105 -42.18943,-77.7629 -80.61977,-98.4933 l -14,-7.552 -16.66667,-5.1131 -16.66667,-5.1131 -16.11208,-1.5663 -16.11209,-1.5663 -15.88791,1.5852 -15.88792,1.5851 -16,4.748 -16,4.7481 -15.00353,7.9991 -15.00353,7.9991 -13.04488,10.9276 c -33.90284,28.4001 -54.96904,68.0877 -59.56315,112.2138 l -1.71211,16.4446 1.80498,16.993 1.80497,16.993 4.68898,15.1623 c 19.32056,62.4747 75.01921,109.3754 138.69494,116.7871 19.59231,2.2805 21.37168,2.2859 40.66667,0.1235 z m 927.33333,0.4595 14.6667,-1.4749 16,-4.7436 16,-4.7436 14.6703,-7.821 14.6703,-7.8209 13.3297,-11.0557 c 25.0221,-20.7533 43.7886,-48.7646 53.3197,-79.5859 l 4.7272,-15.2868 1.805,-16.993 1.805,-16.993 -1.7121,-16.4446 c -2.3037,-22.126 -8.1433,-41.5376 -18.4305,-61.2644 l -8.1846,-15.695 -10.8157,-13.0679 c -13.7516,-16.6152 -31.4538,-31.1077 -50.3675,-41.2351 l -14.8168,-7.9338 -16,-4.726 -16,-4.7261 -16.1121,-1.5788 -16.1121,-1.5789 -15.8879,1.5852 -15.8879,1.5851 -16,4.7633 -16,4.7632 -14.6337,7.8849 c -39.1434,21.0911 -68.1447,56.3345 -81.3194,98.8224 l -4.9099,15.8342 -1.4732,16.6152 -1.4732,16.6153 1.5746,16.708 1.5746,16.708 4.83,15.5092 c 19.5334,62.7221 75.0472,109.3455 139.1635,116.8768 18.6197,2.1871 20.9074,2.2171 38,0.4982 z M 1018.6667,934.62273 C 958.4003,932.84164 931.09476,928.19579 902.13148,914.79505 853.16672,892.14003 822.41155,840.27221 797.35547,738.09297 788.21122,700.8025 768.38638,599.47927 764.54722,570.41248 L 762.37945,554 l 0.71615,-11.55027 0.71615,-11.55028 3.49755,-7.39319 C 777.67661,501.59156 800.91809,495.639 898,490.03403 c 128.726,-7.43192 192.9379,-8.93412 382,-8.93662 188.9492,-0.003 253.205,1.50071 382,8.93662 97.3121,5.61826 120.0429,11.46761 130.9173,33.68917 l 3.7241,7.61013 -0.092,18 -0.092,18 L 1793.6161,584 c -4.2529,24.95528 -16.9234,90.60169 -23.0327,119.33333 -19.8345,93.28077 -42.7024,150.4179 -73.1082,182.66667 -27.2042,28.85314 -61.2857,42.10529 -122.1419,47.49331 l -17.3333,1.53464 -252,0.3195 c -138.6,0.17573 -267.9,-0.1504 -287.3333,-0.72472 z"
       id="path1" />
  </g>
</svg>
