<?xml version="1.0" encoding="UTF-8" standalone="no"?>
<!-- Created with Inkscape (http://www.inkscape.org/) -->

<svg
   version="1.1"
   id="svg1"
   width="2560"
   height="2560"
   viewBox="0 0 2560 2560"
   sodipodi:docname="icon_Haptic.png"
   inkscape:export-filename="icon_Haptic.svg"
   inkscape:export-xdpi="96"
   inkscape:export-ydpi="96"
   xmlns:inkscape="http://www.inkscape.org/namespaces/inkscape"
   xmlns:sodipodi="http://sodipodi.sourceforge.net/DTD/sodipodi-0.dtd"
   xmlns="http://www.w3.org/2000/svg"
   xmlns:svg="http://www.w3.org/2000/svg">
  <defs
     id="defs1">
    <filter
       style="color-interpolation-filters:sRGB"
       inkscape:label="Invert"
       id="filter2"
       x="0"
       y="0"
       width="1"
       height="1">
      <feColorMatrix
         type="hueRotate"
         values="180"
         result="color1"
         id="feColorMatrix1" />
      <feColorMatrix
         values="-1 0 0 0 1 0 -1 0 0 1 0 0 -1 0 1 -0.21 -0.72 -0.07 1 0 "
         result="color2"
         id="feColorMatrix2" />
    </filter>
  </defs>
  <sodipodi:namedview
     id="namedview1"
     pagecolor="#ffffff"
     bordercolor="#000000"
     borderopacity="0.25"
     inkscape:showpageshadow="2"
     inkscape:pageopacity="0.0"
     inkscape:pagecheckerboard="0"
     inkscape:deskcolor="#d1d1d1"
     showgrid="false">
    <inkscape:page
       x="0"
       y="0"
       width="2560"
       height="2560"
       id="page2"
       margin="0"
       bleed="0" />
  </sodipodi:namedview>
  <g
     inkscape:groupmode="layer"
     inkscape:label="Image"
     id="g1">
    <path
       style="fill:#000000;filter:url(#filter2)"
       d="M 346.61953,2016.0192 C 199.30734,1996.482 163.68198,1940.6927 140.56178,1693.3333 116.26358,1433.3706 220.83202,888.73571 344.01531,633.6647 412.71567,491.40944 499.56662,462.95976 906.50188,449.41151 c 44.24833,-1.47317 38.58815,8.74345 39.19378,-70.74484 0.62776,-82.39357 1.83321,-89.54462 18.61225,-110.41252 23.2456,-28.91028 92.89649,-29.03418 118.81069,-0.21135 16.8883,18.78383 18.5442,28.281 19.2037,110.14018 l 0.5386,66.84966 226.9029,0.71063 c 245.6283,0.76927 322.6818,2.24855 432.2362,8.29808 334.9457,18.49552 401.0647,48.99777 471.0187,217.29198 94.2738,226.80223 163.7013,538.10977 187.0386,838.66667 13.3831,172.3585 -17.5646,380.2691 -66.2617,445.1542 -29.207,38.9161 -91.7097,61.0925 -177.9659,63.1433 -60.5768,1.4403 -84.9239,-8.5236 -108.0543,-44.2206 -7.0301,-10.8496 -12.0375,-21.5168 -38.5284,-82.0769 -10.8234,-24.7431 -37.8429,-79.1627 -64.2144,-129.3333 -11.3712,-21.6334 -28.0404,-53.4334 -37.0425,-70.6667 -72.212,-138.2399 -90.6248,-144.2422 -369.9901,-120.6105 -136.5629,11.552 -163.2811,13.364 -229,15.5301 -61.4635,2.026 -156.4267,-0.7644 -216,-6.3469 l -9,-0.8433 V 1013.059 446.38858 l -55.6667,0.82367 c -30.6166,0.45302 -66.61663,1.18064 -79.99997,1.61694 L 944,449.62245 v 558.62825 558.6282 l -8.33333,-0.7994 C 773.44221,1550.5163 708.1145,1565.6109 667.6817,1628 c -20.07916,30.9828 -115.31264,214.5959 -136.92724,264 -26.53706,60.6552 -31.50132,71.2319 -38.54731,82.1273 -25.82294,39.9307 -68.27358,52.1456 -145.58762,41.8919 z M 1874.3066,1471.2735 c 36.5547,-8.3145 50.0299,-29.0922 53.7386,-82.8603 2.0534,-29.7697 0.9753,-683.97124 -1.1485,-696.93414 -7.9405,-48.46575 -29.6549,-67.53961 -76.9262,-67.57166 -45.6131,-0.0309 -68.5191,18.14849 -76.5565,60.75927 -3.9527,20.95519 -6.3388,623.91143 -2.7502,694.95443 2.0652,40.8852 6.2183,56.4348 19.5605,73.2358 13.8136,17.3947 51.8994,25.7366 84.0823,18.4166 z m -1124.17075,-4.6192 c 49.32283,-6.1846 67.46276,-26.5436 72.45703,-81.321 1.93935,-21.2707 1.93935,-748.06255 0,-769.3333 -5.05449,-55.43788 -23.67016,-75.65186 -74.98805,-81.4264 -44.28505,-4.98317 -81.27721,9.53265 -94.40811,37.04599 -11.95799,25.05571 -11.83402,20.7563 -11.75675,407.71374 0.0914,457.69037 -0.71991,440.56697 22.07509,465.92047 14.92149,16.5963 51.95878,25.7467 86.62079,21.4005 z M 1326,1448.8084 c 33.9012,-9.1735 47.2608,-29.163 51.3332,-76.8084 1.8963,-22.1852 1.786,-625.22623 -0.1184,-647.51099 -4.4559,-52.1414 -21.6684,-72.59304 -65.6441,-77.99733 -45.1308,-5.54626 -76.6403,12.65097 -86.1259,49.73906 -6.1985,24.23617 -6.1115,19.2146 -6.1115,352.43596 0,348.8733 -0.2977,337.1326 9.2108,363.187 11.567,31.695 55.4284,48.327 97.4559,36.9547 z m 275.8346,-228.0097 c 47.7453,-13.3194 52.0915,-27.4467 52.1349,-169.4654 0.045,-147.71517 -4.3058,-161.96963 -53.3028,-174.63114 -52.0643,-13.45413 -92.8012,8.61197 -102.9911,55.78758 -3.6442,16.87089 -3.5601,215.85516 0.098,232.84356 10.0732,46.7764 53.065,69.6914 104.0606,55.4654 z m 543.2216,-48.2101 c 20.8648,-4.219 35.7019,-14.0268 45.2653,-29.9219 20.3624,-33.8439 19.288,-163.60365 -1.6153,-195.10381 -33.2764,-50.14573 -120.404,-36.31466 -137.1409,21.77044 -8.392,29.12417 -8.928,118.52967 -0.9054,151.02397 10.2472,41.5045 46.9662,61.8219 94.3963,52.2313 z M 504,1153.1411 c 35.89643,-8.9981 47.71776,-27.9612 50.86639,-81.5969 4.3691,-74.42595 -5.81038,-111.22132 -34.42735,-124.44317 -35.40059,-16.35608 -83.89027,-10.97745 -105.05883,11.65346 -27.47138,29.36913 -27.38218,146.56041 0.13485,177.16601 16.38706,18.2263 54.71515,25.6856 88.48494,17.2206 z m 508.3642,697.4552 c -61.31849,-6.2648 -67.33708,-22.6105 -66.74187,-181.263 L 946,1568.6667 l 78.3333,5.9058 78.3334,5.9059 v 94.0941 c 0,122.5057 -0.9569,130.5862 -18.057,153.2554 -12.4757,16.5388 -42.0338,25.8547 -72.2417,22.7684 z"
       id="path1" />
  </g>
</svg>
