<?xml version="1.0" encoding="UTF-8" standalone="no"?>
<!-- Created with Inkscape (http://www.inkscape.org/) -->

<svg
   version="1.1"
   id="svg1"
   width="2560"
   height="2560"
   viewBox="0 0 2560 2560"
   xmlns="http://www.w3.org/2000/svg"
   xmlns:svg="http://www.w3.org/2000/svg">
  <defs
     id="defs1">
    <filter
       style="color-interpolation-filters:sRGB"
       id="filter2"
       x="0"
       y="0"
       width="1"
       height="1">
      <feColorMatrix
         type="hueRotate"
         values="180"
         result="color1"
         id="feColorMatrix1" />
      <feColorMatrix
         values="-1 0 0 0 1 0 -1 0 0 1 0 0 -1 0 1 -0.21 -0.72 -0.07 1 0 "
         result="color2"
         id="feColorMatrix2" />
    </filter>
  </defs>
  <g
     id="g1">
    <path
       style="fill:#000000;filter:url(#filter2)"
       d="m 959.66371,2092.0247 c -36.31802,-9.2513 -63.6517,-35.4533 -88.83447,-85.1565 -15.05908,-29.7221 -25.41392,-57.1033 -61.59242,-162.8682 -38.16635,-111.5762 -72.9527,-187.9602 -94.33585,-207.1431 l -2.76044,-2.4764 -9.76906,7.9826 c -5.37299,4.3905 -21.06711,18.7048 -34.87583,31.8098 -72.24656,68.5643 -97.80912,88.3391 -148.20218,114.6471 -75.25647,39.288 -218.74943,72.5616 -312.62679,72.4929 l -15.33334,-0.011 -6.72817,-1.7918 c -18.52487,-4.9334 -28.96758,-16.5597 -36.08628,-40.1766 l -3.61709,-12 0.0123,-18 0.0123,-18 2.75154,-10 c 9.10852,-33.1034 24.87459,-42.3081 81.05391,-47.3219 98.64835,-8.8039 168.19274,-24.5448 217.94274,-49.3299 35.08047,-17.4768 52.58351,-30.8721 105.12542,-80.4542 58.88895,-55.5715 92.13822,-77.0562 132.40298,-85.5548 l 12.46365,-2.6307 16.15868,-0.021 16.15868,-0.021 11.17465,1.957 c 87.46452,15.3178 137.1136,88.2214 213.87071,314.043 25.62226,75.3814 26.17208,76.7406 27.64263,68.3333 0.35274,-2.0166 3.39888,-17.1666 6.7692,-33.6666 25.61562,-125.4059 48.07462,-314.0733 88.24832,-741.3334 69.8219,-742.57784 91.7868,-841.3786 191.4147,-861.00637 l 10.8949,-2.14641 11.211,1.62094 c 52.6491,7.61227 83.7911,46.33762 105.775,131.53187 23.4298,90.79755 39.5339,208.83573 82.0409,601.33334 27.8256,256.93453 46.3014,397.12103 66.7757,506.66663 8.8725,47.4719 25.3097,116.6099 28.4841,119.81 l 1.1341,1.1433 6.6891,-20.4766 c 12.0937,-37.0214 21.1634,-70.3606 34.0847,-125.2911 7.9995,-34.0074 14.2011,-62.5109 42.177,-193.8522 35.4909,-166.6226 55.7151,-231.2745 87.1714,-278.6667 l 7.965,-12 12.7978,-12.66667 12.7978,-12.66666 10.8557,-6.46013 c 5.9706,-3.55307 15.8961,-8.19749 22.0566,-10.32093 l 11.2009,-3.86079 13.6602,-1.6027 13.6601,-1.6027 12.2319,1.55036 c 49.5636,6.28209 87.0879,41.41821 114.9654,107.64862 17.4287,41.4066 30.7938,87.1255 68.5952,234.6483 74.3477,290.1479 110.7308,391.5965 157.6568,439.6007 l 9.7498,9.9738 11.299,5.5392 c 6.2145,3.0466 15.199,6.5729 19.9657,7.8362 l 8.6667,2.2968 26.6666,0.043 c 14.6667,0.024 36.5667,-0.4947 48.6667,-1.1523 l 22,-1.1956 9.3328,1.6259 c 27.792,4.8418 45.726,26.5171 52.7752,63.7849 l 1.58,8.3528 -0.717,12.9805 c -0.8407,15.2186 -3.2576,23.8028 -9.281,32.9635 l -4.3724,6.6498 -7.3297,5.038 c -9.1464,6.2867 -23.3572,11.1741 -40.6546,13.9821 l -13.3333,2.1645 -37.3333,0.08 -37.3334,0.08 L 2248,1876.9321 C 2076.5457,1850.3348 2015.2165,1749.5274 1902.684,1309.3333 1873.7182,1196.0277 1861.3215,1150.6252 1851.5345,1122 l -4.5587,-13.3333 -1.4674,3.6995 c -9.1128,22.9749 -29.3338,107.6155 -55.4977,232.3005 -74.6275,355.6393 -116.4374,444.8792 -211.2684,450.9351 l -11.409,0.7286 -9.9687,-1.5575 c -30.1662,-4.7131 -59.169,-23.9376 -79.8883,-52.9541 l -8.4392,-11.8188 -10.4746,-21.3333 -10.4747,-21.3334 -9.2689,-28 C 1400.1221,1542.4371 1376.0585,1385.1803 1325.9913,922 c -17.515,-162.034 -31.6291,-281.74403 -40.0621,-339.79047 -1.7944,-12.35143 -3.2625,-23.10143 -3.2625,-23.88889 0,-13.44293 -10.8544,66.55768 -20.5796,151.67936 -9.4089,82.35327 -21.7736,206.48508 -42.1014,422.6667 -65.4301,695.8335 -95.519,864.8621 -166.0002,932.5268 -20.7031,19.8759 -39.4141,27.8228 -67.9855,28.875 l -16,0.5892 z"
       id="path1" />
  </g>
</svg>
